<mxfile host="app.diagrams.net" agent="Mozilla/5.0 (Windows NT 10.0; Win64; x64) AppleWebKit/537.36 (KHTML, like Gecko) Chrome/140.0.0.0 Safari/537.36" version="28.2.4">
  <diagram name="PÃ¡gina-1" id="o_vclZa8i1B72Egsuipd">
    <mxGraphModel dx="1932" dy="1642" grid="1" gridSize="10" guides="1" tooltips="1" connect="1" arrows="1" fold="1" page="1" pageScale="1" pageWidth="827" pageHeight="1169" math="0" shadow="0">
      <root>
        <mxCell id="0" />
        <mxCell id="1" parent="0" />
        <mxCell id="Htsk9jUAKjOqGIlY0f94-7" style="edgeStyle=none;shape=connector;rounded=0;orthogonalLoop=1;jettySize=auto;html=1;exitX=0.5;exitY=1;exitDx=0;exitDy=0;entryX=0.5;entryY=0;entryDx=0;entryDy=0;strokeColor=default;align=center;verticalAlign=middle;fontFamily=Helvetica;fontSize=11;fontColor=default;labelBackgroundColor=default;endArrow=none;" edge="1" parent="1" source="Htsk9jUAKjOqGIlY0f94-2" target="Htsk9jUAKjOqGIlY0f94-3">
          <mxGeometry relative="1" as="geometry">
            <Array as="points">
              <mxPoint x="150" y="60" />
              <mxPoint x="240" y="60" />
              <mxPoint x="60" y="60" />
            </Array>
          </mxGeometry>
        </mxCell>
        <mxCell id="Htsk9jUAKjOqGIlY0f94-39" style="edgeStyle=none;shape=connector;rounded=0;orthogonalLoop=1;jettySize=auto;html=1;exitX=1;exitY=0.5;exitDx=0;exitDy=0;entryX=0;entryY=0.5;entryDx=0;entryDy=0;strokeColor=default;align=center;verticalAlign=middle;fontFamily=Helvetica;fontSize=11;fontColor=default;labelBackgroundColor=default;endArrow=none;" edge="1" parent="1" source="Htsk9jUAKjOqGIlY0f94-51" target="Htsk9jUAKjOqGIlY0f94-38">
          <mxGeometry relative="1" as="geometry" />
        </mxCell>
        <mxCell id="Htsk9jUAKjOqGIlY0f94-2" value="Jugador" style="whiteSpace=wrap;html=1;align=center;" vertex="1" parent="1">
          <mxGeometry x="100" y="-20" width="100" height="40" as="geometry" />
        </mxCell>
        <mxCell id="Htsk9jUAKjOqGIlY0f94-3" value="Federado" style="whiteSpace=wrap;html=1;align=center;" vertex="1" parent="1">
          <mxGeometry x="10" y="100" width="100" height="40" as="geometry" />
        </mxCell>
        <mxCell id="Htsk9jUAKjOqGIlY0f94-9" style="edgeStyle=none;shape=connector;rounded=0;orthogonalLoop=1;jettySize=auto;html=1;exitX=0.5;exitY=0;exitDx=0;exitDy=0;strokeColor=default;align=center;verticalAlign=middle;fontFamily=Helvetica;fontSize=11;fontColor=default;labelBackgroundColor=default;endArrow=none;" edge="1" parent="1" source="Htsk9jUAKjOqGIlY0f94-4">
          <mxGeometry relative="1" as="geometry">
            <mxPoint x="240" y="60" as="targetPoint" />
          </mxGeometry>
        </mxCell>
        <mxCell id="Htsk9jUAKjOqGIlY0f94-4" value="No Federado" style="whiteSpace=wrap;html=1;align=center;" vertex="1" parent="1">
          <mxGeometry x="190" y="100" width="100" height="40" as="geometry" />
        </mxCell>
        <mxCell id="Htsk9jUAKjOqGIlY0f94-11" value="" style="endArrow=none;html=1;rounded=0;strokeColor=default;align=center;verticalAlign=middle;fontFamily=Helvetica;fontSize=11;fontColor=default;labelBackgroundColor=default;" edge="1" parent="1">
          <mxGeometry width="50" height="50" relative="1" as="geometry">
            <mxPoint x="110" y="40" as="sourcePoint" />
            <mxPoint x="190" y="40" as="targetPoint" />
            <Array as="points">
              <mxPoint x="120" y="60" />
              <mxPoint x="130" y="70" />
              <mxPoint x="150" y="80" />
              <mxPoint x="170" y="70" />
              <mxPoint x="180" y="60" />
            </Array>
          </mxGeometry>
        </mxCell>
        <mxCell id="Htsk9jUAKjOqGIlY0f94-12" value="" style="endArrow=none;html=1;rounded=0;strokeColor=default;align=center;verticalAlign=middle;fontFamily=Helvetica;fontSize=11;fontColor=default;labelBackgroundColor=default;" edge="1" parent="1">
          <mxGeometry width="50" height="50" relative="1" as="geometry">
            <mxPoint x="160" y="60" as="sourcePoint" />
            <mxPoint x="160" y="20" as="targetPoint" />
          </mxGeometry>
        </mxCell>
        <mxCell id="Htsk9jUAKjOqGIlY0f94-20" style="edgeStyle=none;shape=connector;rounded=0;orthogonalLoop=1;jettySize=auto;html=1;exitX=1;exitY=1;exitDx=0;exitDy=0;entryX=0;entryY=0.5;entryDx=0;entryDy=0;strokeColor=default;align=center;verticalAlign=middle;fontFamily=Helvetica;fontSize=11;fontColor=default;labelBackgroundColor=default;endArrow=none;" edge="1" parent="1" source="Htsk9jUAKjOqGIlY0f94-13" target="Htsk9jUAKjOqGIlY0f94-2">
          <mxGeometry relative="1" as="geometry" />
        </mxCell>
        <mxCell id="Htsk9jUAKjOqGIlY0f94-13" value="dni" style="ellipse;whiteSpace=wrap;html=1;align=center;fontFamily=Helvetica;fontSize=11;fontColor=default;labelBackgroundColor=default;" vertex="1" parent="1">
          <mxGeometry x="10" y="-70" width="40" height="30" as="geometry" />
        </mxCell>
        <mxCell id="Htsk9jUAKjOqGIlY0f94-22" style="edgeStyle=none;shape=connector;rounded=0;orthogonalLoop=1;jettySize=auto;html=1;exitX=0.5;exitY=1;exitDx=0;exitDy=0;entryX=0.5;entryY=0;entryDx=0;entryDy=0;strokeColor=default;align=center;verticalAlign=middle;fontFamily=Helvetica;fontSize=11;fontColor=default;labelBackgroundColor=default;endArrow=none;" edge="1" parent="1" source="Htsk9jUAKjOqGIlY0f94-14" target="Htsk9jUAKjOqGIlY0f94-2">
          <mxGeometry relative="1" as="geometry" />
        </mxCell>
        <mxCell id="Htsk9jUAKjOqGIlY0f94-14" value="nombre" style="ellipse;whiteSpace=wrap;html=1;align=center;fontFamily=Helvetica;fontSize=11;fontColor=default;labelBackgroundColor=default;" vertex="1" parent="1">
          <mxGeometry x="70" y="-110" width="60" height="30" as="geometry" />
        </mxCell>
        <mxCell id="Htsk9jUAKjOqGIlY0f94-23" style="edgeStyle=none;shape=connector;rounded=0;orthogonalLoop=1;jettySize=auto;html=1;exitX=0.5;exitY=1;exitDx=0;exitDy=0;entryX=0.5;entryY=0;entryDx=0;entryDy=0;strokeColor=default;align=center;verticalAlign=middle;fontFamily=Helvetica;fontSize=11;fontColor=default;labelBackgroundColor=default;endArrow=none;" edge="1" parent="1" source="Htsk9jUAKjOqGIlY0f94-15" target="Htsk9jUAKjOqGIlY0f94-2">
          <mxGeometry relative="1" as="geometry" />
        </mxCell>
        <mxCell id="Htsk9jUAKjOqGIlY0f94-15" value="apellido" style="ellipse;whiteSpace=wrap;html=1;align=center;fontFamily=Helvetica;fontSize=11;fontColor=default;labelBackgroundColor=default;" vertex="1" parent="1">
          <mxGeometry x="140" y="-110" width="60" height="30" as="geometry" />
        </mxCell>
        <mxCell id="Htsk9jUAKjOqGIlY0f94-24" style="edgeStyle=none;shape=connector;rounded=0;orthogonalLoop=1;jettySize=auto;html=1;exitX=0.5;exitY=1;exitDx=0;exitDy=0;entryX=1;entryY=0.5;entryDx=0;entryDy=0;strokeColor=default;align=center;verticalAlign=middle;fontFamily=Helvetica;fontSize=11;fontColor=default;labelBackgroundColor=default;endArrow=none;" edge="1" parent="1" source="Htsk9jUAKjOqGIlY0f94-16" target="Htsk9jUAKjOqGIlY0f94-2">
          <mxGeometry relative="1" as="geometry" />
        </mxCell>
        <mxCell id="Htsk9jUAKjOqGIlY0f94-16" value="edad" style="ellipse;whiteSpace=wrap;html=1;align=center;dashed=1;fontFamily=Helvetica;fontSize=11;fontColor=default;labelBackgroundColor=default;" vertex="1" parent="1">
          <mxGeometry x="230" y="-100" width="60" height="30" as="geometry" />
        </mxCell>
        <mxCell id="Htsk9jUAKjOqGIlY0f94-25" style="edgeStyle=none;shape=connector;rounded=0;orthogonalLoop=1;jettySize=auto;html=1;exitX=0;exitY=1;exitDx=0;exitDy=0;entryX=1;entryY=0.5;entryDx=0;entryDy=0;strokeColor=default;align=center;verticalAlign=middle;fontFamily=Helvetica;fontSize=11;fontColor=default;labelBackgroundColor=default;endArrow=none;" edge="1" parent="1" source="Htsk9jUAKjOqGIlY0f94-17" target="Htsk9jUAKjOqGIlY0f94-2">
          <mxGeometry relative="1" as="geometry" />
        </mxCell>
        <mxCell id="Htsk9jUAKjOqGIlY0f94-17" value="fechaDeNacimiento" style="ellipse;whiteSpace=wrap;html=1;align=center;fontFamily=Helvetica;fontSize=11;fontColor=default;labelBackgroundColor=default;" vertex="1" parent="1">
          <mxGeometry x="270" y="-70" width="110" height="40" as="geometry" />
        </mxCell>
        <mxCell id="Htsk9jUAKjOqGIlY0f94-19" style="edgeStyle=none;shape=connector;rounded=0;orthogonalLoop=1;jettySize=auto;html=1;exitX=1;exitY=0.5;exitDx=0;exitDy=0;entryX=0;entryY=0.5;entryDx=0;entryDy=0;strokeColor=default;align=center;verticalAlign=middle;fontFamily=Helvetica;fontSize=11;fontColor=default;labelBackgroundColor=default;endArrow=none;" edge="1" parent="1" source="Htsk9jUAKjOqGIlY0f94-18" target="Htsk9jUAKjOqGIlY0f94-2">
          <mxGeometry relative="1" as="geometry" />
        </mxCell>
        <mxCell id="Htsk9jUAKjOqGIlY0f94-18" value="idJugador" style="ellipse;whiteSpace=wrap;html=1;align=center;fontStyle=4;fontFamily=Helvetica;fontSize=11;fontColor=default;labelBackgroundColor=default;" vertex="1" parent="1">
          <mxGeometry x="-60" y="-30" width="70" height="40" as="geometry" />
        </mxCell>
        <mxCell id="Htsk9jUAKjOqGIlY0f94-29" style="edgeStyle=none;shape=connector;rounded=0;orthogonalLoop=1;jettySize=auto;html=1;exitX=0.5;exitY=0;exitDx=0;exitDy=0;entryX=0.75;entryY=1;entryDx=0;entryDy=0;strokeColor=default;align=center;verticalAlign=middle;fontFamily=Helvetica;fontSize=11;fontColor=default;labelBackgroundColor=default;endArrow=none;" edge="1" parent="1" source="Htsk9jUAKjOqGIlY0f94-28" target="Htsk9jUAKjOqGIlY0f94-4">
          <mxGeometry relative="1" as="geometry" />
        </mxCell>
        <mxCell id="Htsk9jUAKjOqGIlY0f94-28" value="ocupacion" style="ellipse;whiteSpace=wrap;html=1;align=center;fontFamily=Helvetica;fontSize=11;fontColor=default;labelBackgroundColor=default;fontStyle=1" vertex="1" parent="1">
          <mxGeometry x="295" y="175" width="60" height="30" as="geometry" />
        </mxCell>
        <mxCell id="Htsk9jUAKjOqGIlY0f94-31" value="" style="edgeStyle=none;shape=connector;rounded=0;orthogonalLoop=1;jettySize=auto;html=1;strokeColor=default;align=center;verticalAlign=middle;fontFamily=Helvetica;fontSize=11;fontColor=default;labelBackgroundColor=default;endArrow=none;entryX=0.5;entryY=1;entryDx=0;entryDy=0;" edge="1" parent="1" source="Htsk9jUAKjOqGIlY0f94-30" target="Htsk9jUAKjOqGIlY0f94-4">
          <mxGeometry relative="1" as="geometry" />
        </mxCell>
        <mxCell id="Htsk9jUAKjOqGIlY0f94-35" style="edgeStyle=none;shape=connector;rounded=0;orthogonalLoop=1;jettySize=auto;html=1;exitX=0.5;exitY=1;exitDx=0;exitDy=0;entryX=0.5;entryY=0;entryDx=0;entryDy=0;strokeColor=default;align=center;verticalAlign=middle;fontFamily=Helvetica;fontSize=11;fontColor=default;labelBackgroundColor=default;endArrow=none;" edge="1" parent="1" source="Htsk9jUAKjOqGIlY0f94-30" target="Htsk9jUAKjOqGIlY0f94-32">
          <mxGeometry relative="1" as="geometry" />
        </mxCell>
        <mxCell id="Htsk9jUAKjOqGIlY0f94-36" style="edgeStyle=none;shape=connector;rounded=0;orthogonalLoop=1;jettySize=auto;html=1;exitX=0.5;exitY=1;exitDx=0;exitDy=0;entryX=0.5;entryY=0;entryDx=0;entryDy=0;strokeColor=default;align=center;verticalAlign=middle;fontFamily=Helvetica;fontSize=11;fontColor=default;labelBackgroundColor=default;endArrow=none;" edge="1" parent="1" source="Htsk9jUAKjOqGIlY0f94-30" target="Htsk9jUAKjOqGIlY0f94-33">
          <mxGeometry relative="1" as="geometry" />
        </mxCell>
        <mxCell id="Htsk9jUAKjOqGIlY0f94-37" style="edgeStyle=none;shape=connector;rounded=0;orthogonalLoop=1;jettySize=auto;html=1;exitX=0.5;exitY=1;exitDx=0;exitDy=0;entryX=0;entryY=0.5;entryDx=0;entryDy=0;strokeColor=default;align=center;verticalAlign=middle;fontFamily=Helvetica;fontSize=11;fontColor=default;labelBackgroundColor=default;endArrow=none;" edge="1" parent="1" source="Htsk9jUAKjOqGIlY0f94-30" target="Htsk9jUAKjOqGIlY0f94-34">
          <mxGeometry relative="1" as="geometry" />
        </mxCell>
        <mxCell id="Htsk9jUAKjOqGIlY0f94-30" value="direccion" style="ellipse;whiteSpace=wrap;html=1;align=center;fontFamily=Helvetica;fontSize=11;fontColor=default;labelBackgroundColor=default;" vertex="1" parent="1">
          <mxGeometry x="210" y="177.5" width="60" height="30" as="geometry" />
        </mxCell>
        <mxCell id="Htsk9jUAKjOqGIlY0f94-32" value="numero" style="ellipse;whiteSpace=wrap;html=1;align=center;fontFamily=Helvetica;fontSize=11;fontColor=default;labelBackgroundColor=default;" vertex="1" parent="1">
          <mxGeometry x="260" y="250" width="60" height="30" as="geometry" />
        </mxCell>
        <mxCell id="Htsk9jUAKjOqGIlY0f94-33" value="calle" style="ellipse;whiteSpace=wrap;html=1;align=center;fontFamily=Helvetica;fontSize=11;fontColor=default;labelBackgroundColor=default;" vertex="1" parent="1">
          <mxGeometry x="210" y="250" width="40" height="30" as="geometry" />
        </mxCell>
        <mxCell id="Htsk9jUAKjOqGIlY0f94-34" value="cp" style="ellipse;whiteSpace=wrap;html=1;align=center;fontFamily=Helvetica;fontSize=11;fontColor=default;labelBackgroundColor=default;" vertex="1" parent="1">
          <mxGeometry x="150" y="250" width="40" height="30" as="geometry" />
        </mxCell>
        <mxCell id="Htsk9jUAKjOqGIlY0f94-38" value="Equipo" style="whiteSpace=wrap;html=1;align=center;" vertex="1" parent="1">
          <mxGeometry x="610" y="-20" width="100" height="40" as="geometry" />
        </mxCell>
        <mxCell id="Htsk9jUAKjOqGIlY0f94-41" style="edgeStyle=none;shape=connector;rounded=0;orthogonalLoop=1;jettySize=auto;html=1;exitX=0.5;exitY=0;exitDx=0;exitDy=0;entryX=0.5;entryY=1;entryDx=0;entryDy=0;strokeColor=default;align=center;verticalAlign=middle;fontFamily=Helvetica;fontSize=11;fontColor=default;labelBackgroundColor=default;endArrow=none;" edge="1" parent="1" source="Htsk9jUAKjOqGIlY0f94-42" target="Htsk9jUAKjOqGIlY0f94-3">
          <mxGeometry relative="1" as="geometry" />
        </mxCell>
        <mxCell id="Htsk9jUAKjOqGIlY0f94-40" value="Club" style="whiteSpace=wrap;html=1;align=center;" vertex="1" parent="1">
          <mxGeometry x="10" y="240" width="100" height="40" as="geometry" />
        </mxCell>
        <mxCell id="Htsk9jUAKjOqGIlY0f94-43" value="" style="edgeStyle=none;shape=connector;rounded=0;orthogonalLoop=1;jettySize=auto;html=1;exitX=0.5;exitY=0;exitDx=0;exitDy=0;entryX=0.5;entryY=1;entryDx=0;entryDy=0;strokeColor=default;align=center;verticalAlign=middle;fontFamily=Helvetica;fontSize=11;fontColor=default;labelBackgroundColor=default;endArrow=none;" edge="1" parent="1" source="Htsk9jUAKjOqGIlY0f94-40" target="Htsk9jUAKjOqGIlY0f94-42">
          <mxGeometry relative="1" as="geometry">
            <mxPoint x="60" y="230" as="sourcePoint" />
            <mxPoint x="60" y="140" as="targetPoint" />
          </mxGeometry>
        </mxCell>
        <mxCell id="Htsk9jUAKjOqGIlY0f94-42" value="tiene" style="shape=rhombus;perimeter=rhombusPerimeter;whiteSpace=wrap;html=1;align=center;fontFamily=Helvetica;fontSize=11;fontColor=default;labelBackgroundColor=default;" vertex="1" parent="1">
          <mxGeometry x="30" y="175" width="60" height="35" as="geometry" />
        </mxCell>
        <mxCell id="Htsk9jUAKjOqGIlY0f94-45" style="edgeStyle=none;shape=connector;rounded=0;orthogonalLoop=1;jettySize=auto;html=1;exitX=0.414;exitY=0;exitDx=0;exitDy=0;entryX=0.5;entryY=1;entryDx=0;entryDy=0;strokeColor=default;align=center;verticalAlign=middle;fontFamily=Helvetica;fontSize=11;fontColor=default;labelBackgroundColor=default;endArrow=none;exitPerimeter=0;" edge="1" parent="1" source="Htsk9jUAKjOqGIlY0f94-44" target="Htsk9jUAKjOqGIlY0f94-40">
          <mxGeometry relative="1" as="geometry" />
        </mxCell>
        <mxCell id="Htsk9jUAKjOqGIlY0f94-44" value="idClub" style="ellipse;whiteSpace=wrap;html=1;align=center;fontStyle=4;fontFamily=Helvetica;fontSize=11;fontColor=default;labelBackgroundColor=default;" vertex="1" parent="1">
          <mxGeometry x="80" y="320" width="70" height="40" as="geometry" />
        </mxCell>
        <mxCell id="Htsk9jUAKjOqGIlY0f94-47" style="edgeStyle=none;shape=connector;rounded=0;orthogonalLoop=1;jettySize=auto;html=1;exitX=0.5;exitY=0;exitDx=0;exitDy=0;strokeColor=default;align=center;verticalAlign=middle;fontFamily=Helvetica;fontSize=11;fontColor=default;labelBackgroundColor=default;endArrow=none;entryX=0.5;entryY=1;entryDx=0;entryDy=0;" edge="1" parent="1" source="Htsk9jUAKjOqGIlY0f94-46" target="Htsk9jUAKjOqGIlY0f94-40">
          <mxGeometry relative="1" as="geometry">
            <mxPoint x="10" y="260" as="targetPoint" />
          </mxGeometry>
        </mxCell>
        <mxCell id="Htsk9jUAKjOqGIlY0f94-46" value="nombre" style="ellipse;whiteSpace=wrap;html=1;align=center;fontFamily=Helvetica;fontSize=11;fontColor=default;labelBackgroundColor=default;" vertex="1" parent="1">
          <mxGeometry x="-30" y="325" width="60" height="30" as="geometry" />
        </mxCell>
        <mxCell id="Htsk9jUAKjOqGIlY0f94-49" value="1" style="text;strokeColor=none;fillColor=none;spacingLeft=4;spacingRight=4;overflow=hidden;rotatable=0;points=[[0,0.5],[1,0.5]];portConstraint=eastwest;fontSize=11;whiteSpace=wrap;html=1;fontFamily=Helvetica;fontColor=default;labelBackgroundColor=default;" vertex="1" parent="1">
          <mxGeometry x="60" y="220" width="40" height="30" as="geometry" />
        </mxCell>
        <mxCell id="Htsk9jUAKjOqGIlY0f94-50" value="N" style="text;strokeColor=none;fillColor=none;spacingLeft=4;spacingRight=4;overflow=hidden;rotatable=0;points=[[0,0.5],[1,0.5]];portConstraint=eastwest;fontSize=11;whiteSpace=wrap;html=1;fontFamily=Helvetica;fontColor=default;labelBackgroundColor=default;" vertex="1" parent="1">
          <mxGeometry x="60" y="140" width="40" height="30" as="geometry" />
        </mxCell>
        <mxCell id="Htsk9jUAKjOqGIlY0f94-52" value="" style="edgeStyle=none;shape=connector;rounded=0;orthogonalLoop=1;jettySize=auto;html=1;exitX=1;exitY=0.5;exitDx=0;exitDy=0;entryX=0;entryY=0.5;entryDx=0;entryDy=0;strokeColor=default;align=center;verticalAlign=middle;fontFamily=Helvetica;fontSize=11;fontColor=default;labelBackgroundColor=default;endArrow=none;" edge="1" parent="1" source="Htsk9jUAKjOqGIlY0f94-2" target="Htsk9jUAKjOqGIlY0f94-51">
          <mxGeometry relative="1" as="geometry">
            <mxPoint x="200" as="sourcePoint" />
            <mxPoint x="610" as="targetPoint" />
          </mxGeometry>
        </mxCell>
        <mxCell id="Htsk9jUAKjOqGIlY0f94-51" value="pertenece" style="shape=rhombus;perimeter=rhombusPerimeter;whiteSpace=wrap;html=1;align=center;fontFamily=Helvetica;fontSize=11;fontColor=default;labelBackgroundColor=default;" vertex="1" parent="1">
          <mxGeometry x="380" y="-17.5" width="60" height="35" as="geometry" />
        </mxCell>
        <mxCell id="Htsk9jUAKjOqGIlY0f94-53" value="N" style="text;strokeColor=none;fillColor=none;spacingLeft=4;spacingRight=4;overflow=hidden;rotatable=0;points=[[0,0.5],[1,0.5]];portConstraint=eastwest;fontSize=11;whiteSpace=wrap;html=1;fontFamily=Helvetica;fontColor=default;labelBackgroundColor=default;" vertex="1" parent="1">
          <mxGeometry x="210" width="20" height="30" as="geometry" />
        </mxCell>
        <mxCell id="Htsk9jUAKjOqGIlY0f94-54" value="1" style="text;strokeColor=none;fillColor=none;spacingLeft=4;spacingRight=4;overflow=hidden;rotatable=0;points=[[0,0.5],[1,0.5]];portConstraint=eastwest;fontSize=11;whiteSpace=wrap;html=1;fontFamily=Helvetica;fontColor=default;labelBackgroundColor=default;" vertex="1" parent="1">
          <mxGeometry x="590" width="20" height="30" as="geometry" />
        </mxCell>
        <mxCell id="Htsk9jUAKjOqGIlY0f94-58" style="edgeStyle=none;shape=connector;rounded=0;orthogonalLoop=1;jettySize=auto;html=1;exitX=1;exitY=1;exitDx=0;exitDy=0;entryX=0.5;entryY=0;entryDx=0;entryDy=0;strokeColor=default;align=center;verticalAlign=middle;fontFamily=Helvetica;fontSize=11;fontColor=default;labelBackgroundColor=default;endArrow=none;" edge="1" parent="1" source="Htsk9jUAKjOqGIlY0f94-55" target="Htsk9jUAKjOqGIlY0f94-38">
          <mxGeometry relative="1" as="geometry" />
        </mxCell>
        <mxCell id="Htsk9jUAKjOqGIlY0f94-55" value="nombre" style="ellipse;whiteSpace=wrap;html=1;align=center;fontFamily=Helvetica;fontSize=11;fontColor=default;labelBackgroundColor=default;" vertex="1" parent="1">
          <mxGeometry x="550" y="-140" width="60" height="30" as="geometry" />
        </mxCell>
        <mxCell id="Htsk9jUAKjOqGIlY0f94-62" style="edgeStyle=none;shape=connector;rounded=0;orthogonalLoop=1;jettySize=auto;html=1;exitX=0.5;exitY=1;exitDx=0;exitDy=0;strokeColor=default;align=center;verticalAlign=middle;fontFamily=Helvetica;fontSize=11;fontColor=default;labelBackgroundColor=default;endArrow=none;" edge="1" parent="1" source="Htsk9jUAKjOqGIlY0f94-56">
          <mxGeometry relative="1" as="geometry">
            <mxPoint x="660" y="-20" as="targetPoint" />
          </mxGeometry>
        </mxCell>
        <mxCell id="Htsk9jUAKjOqGIlY0f94-56" value="fechaDeInscripcion" style="ellipse;whiteSpace=wrap;html=1;align=center;fontFamily=Helvetica;fontSize=11;fontColor=default;labelBackgroundColor=default;" vertex="1" parent="1">
          <mxGeometry x="640" y="-150" width="110" height="30" as="geometry" />
        </mxCell>
        <mxCell id="Htsk9jUAKjOqGIlY0f94-63" style="edgeStyle=none;shape=connector;rounded=0;orthogonalLoop=1;jettySize=auto;html=1;exitX=0.5;exitY=1;exitDx=0;exitDy=0;entryX=0.5;entryY=0;entryDx=0;entryDy=0;strokeColor=default;align=center;verticalAlign=middle;fontFamily=Helvetica;fontSize=11;fontColor=default;labelBackgroundColor=default;endArrow=none;" edge="1" parent="1" source="Htsk9jUAKjOqGIlY0f94-61" target="Htsk9jUAKjOqGIlY0f94-38">
          <mxGeometry relative="1" as="geometry" />
        </mxCell>
        <mxCell id="Htsk9jUAKjOqGIlY0f94-61" value="colores" style="ellipse;shape=doubleEllipse;margin=3;whiteSpace=wrap;html=1;align=center;fontFamily=Helvetica;fontSize=11;fontColor=default;labelBackgroundColor=default;" vertex="1" parent="1">
          <mxGeometry x="760" y="-135" width="80" height="40" as="geometry" />
        </mxCell>
        <mxCell id="Htsk9jUAKjOqGIlY0f94-66" style="edgeStyle=none;shape=connector;rounded=0;orthogonalLoop=1;jettySize=auto;html=1;exitX=1;exitY=1;exitDx=0;exitDy=0;strokeColor=default;align=center;verticalAlign=middle;fontFamily=Helvetica;fontSize=11;fontColor=default;labelBackgroundColor=default;endArrow=none;" edge="1" parent="1" source="Htsk9jUAKjOqGIlY0f94-65">
          <mxGeometry relative="1" as="geometry">
            <mxPoint x="660" y="-20" as="targetPoint" />
          </mxGeometry>
        </mxCell>
        <mxCell id="Htsk9jUAKjOqGIlY0f94-65" value="idEquipo" style="ellipse;whiteSpace=wrap;html=1;align=center;fontStyle=4;fontFamily=Helvetica;fontSize=11;fontColor=default;labelBackgroundColor=default;" vertex="1" parent="1">
          <mxGeometry x="460" y="-130" width="70" height="40" as="geometry" />
        </mxCell>
      </root>
    </mxGraphModel>
  </diagram>
</mxfile>
